<mxfile host="app.diagrams.net" agent="Mozilla/5.0 (X11; Linux x86_64) AppleWebKit/537.36 (KHTML, like Gecko) Chrome/126.0.0.0 Safari/537.36" version="24.7.17">
  <diagram name="Page-1" id="xy-Y8gMw54KaNLh2ESVp">
    <mxGraphModel dx="683" dy="390" grid="0" gridSize="10" guides="1" tooltips="1" connect="1" arrows="1" fold="1" page="1" pageScale="1" pageWidth="827" pageHeight="1169" math="1" shadow="0">
      <root>
        <mxCell id="0" />
        <mxCell id="1" parent="0" />
        <mxCell id="KrM-hgTWWUeT4EFK32_n-1" value="\(4\)" style="ellipse;whiteSpace=wrap;html=1;aspect=fixed;" vertex="1" parent="1">
          <mxGeometry x="390" y="190" width="20" height="20" as="geometry" />
        </mxCell>
        <mxCell id="KrM-hgTWWUeT4EFK32_n-7" value="\(1\)" style="ellipse;whiteSpace=wrap;html=1;aspect=fixed;" vertex="1" parent="1">
          <mxGeometry x="270" y="210" width="20" height="20" as="geometry" />
        </mxCell>
        <mxCell id="KrM-hgTWWUeT4EFK32_n-8" value="\(8\)" style="ellipse;whiteSpace=wrap;html=1;aspect=fixed;" vertex="1" parent="1">
          <mxGeometry x="550" y="250" width="20" height="20" as="geometry" />
        </mxCell>
        <mxCell id="KrM-hgTWWUeT4EFK32_n-9" value="\(6\)" style="ellipse;whiteSpace=wrap;html=1;aspect=fixed;" vertex="1" parent="1">
          <mxGeometry x="470" y="270" width="20" height="20" as="geometry" />
        </mxCell>
        <mxCell id="KrM-hgTWWUeT4EFK32_n-10" value="\(5\)" style="ellipse;whiteSpace=wrap;html=1;aspect=fixed;" vertex="1" parent="1">
          <mxGeometry x="430" y="350" width="20" height="20" as="geometry" />
        </mxCell>
        <mxCell id="KrM-hgTWWUeT4EFK32_n-11" value="\(7\)" style="ellipse;whiteSpace=wrap;html=1;aspect=fixed;" vertex="1" parent="1">
          <mxGeometry x="510" y="310" width="20" height="20" as="geometry" />
        </mxCell>
        <mxCell id="KrM-hgTWWUeT4EFK32_n-12" value="\(9\)" style="ellipse;whiteSpace=wrap;html=1;aspect=fixed;" vertex="1" parent="1">
          <mxGeometry x="590" y="290" width="20" height="20" as="geometry" />
        </mxCell>
        <mxCell id="KrM-hgTWWUeT4EFK32_n-13" value="\(3\)" style="ellipse;whiteSpace=wrap;html=1;aspect=fixed;" vertex="1" parent="1">
          <mxGeometry x="350" y="230" width="20" height="20" as="geometry" />
        </mxCell>
        <mxCell id="KrM-hgTWWUeT4EFK32_n-14" value="\(2\)" style="ellipse;whiteSpace=wrap;html=1;aspect=fixed;" vertex="1" parent="1">
          <mxGeometry x="310" y="330" width="20" height="20" as="geometry" />
        </mxCell>
        <mxCell id="KrM-hgTWWUeT4EFK32_n-15" value="" style="endArrow=none;html=1;rounded=0;" edge="1" parent="1" source="KrM-hgTWWUeT4EFK32_n-7" target="KrM-hgTWWUeT4EFK32_n-1">
          <mxGeometry width="50" height="50" relative="1" as="geometry">
            <mxPoint x="440" y="320" as="sourcePoint" />
            <mxPoint x="490" y="270" as="targetPoint" />
          </mxGeometry>
        </mxCell>
        <mxCell id="KrM-hgTWWUeT4EFK32_n-17" value="" style="endArrow=none;html=1;rounded=0;" edge="1" parent="1" source="KrM-hgTWWUeT4EFK32_n-13" target="KrM-hgTWWUeT4EFK32_n-7">
          <mxGeometry width="50" height="50" relative="1" as="geometry">
            <mxPoint x="360" y="330" as="sourcePoint" />
            <mxPoint x="410" y="280" as="targetPoint" />
          </mxGeometry>
        </mxCell>
        <mxCell id="KrM-hgTWWUeT4EFK32_n-18" value="" style="endArrow=none;html=1;rounded=0;" edge="1" parent="1" source="KrM-hgTWWUeT4EFK32_n-14" target="KrM-hgTWWUeT4EFK32_n-13">
          <mxGeometry width="50" height="50" relative="1" as="geometry">
            <mxPoint x="360" y="330" as="sourcePoint" />
            <mxPoint x="410" y="280" as="targetPoint" />
          </mxGeometry>
        </mxCell>
        <mxCell id="KrM-hgTWWUeT4EFK32_n-19" value="" style="endArrow=none;html=1;rounded=0;" edge="1" parent="1" source="KrM-hgTWWUeT4EFK32_n-8" target="KrM-hgTWWUeT4EFK32_n-1">
          <mxGeometry width="50" height="50" relative="1" as="geometry">
            <mxPoint x="360" y="330" as="sourcePoint" />
            <mxPoint x="410" y="280" as="targetPoint" />
          </mxGeometry>
        </mxCell>
        <mxCell id="KrM-hgTWWUeT4EFK32_n-20" value="" style="endArrow=none;html=1;rounded=0;" edge="1" parent="1" source="KrM-hgTWWUeT4EFK32_n-9" target="KrM-hgTWWUeT4EFK32_n-8">
          <mxGeometry width="50" height="50" relative="1" as="geometry">
            <mxPoint x="360" y="330" as="sourcePoint" />
            <mxPoint x="410" y="280" as="targetPoint" />
          </mxGeometry>
        </mxCell>
        <mxCell id="KrM-hgTWWUeT4EFK32_n-21" value="" style="endArrow=none;html=1;rounded=0;" edge="1" parent="1" source="KrM-hgTWWUeT4EFK32_n-12" target="KrM-hgTWWUeT4EFK32_n-8">
          <mxGeometry width="50" height="50" relative="1" as="geometry">
            <mxPoint x="360" y="330" as="sourcePoint" />
            <mxPoint x="410" y="280" as="targetPoint" />
          </mxGeometry>
        </mxCell>
        <mxCell id="KrM-hgTWWUeT4EFK32_n-22" value="" style="endArrow=none;html=1;rounded=0;" edge="1" parent="1" source="KrM-hgTWWUeT4EFK32_n-11" target="KrM-hgTWWUeT4EFK32_n-9">
          <mxGeometry width="50" height="50" relative="1" as="geometry">
            <mxPoint x="360" y="330" as="sourcePoint" />
            <mxPoint x="410" y="280" as="targetPoint" />
          </mxGeometry>
        </mxCell>
        <mxCell id="KrM-hgTWWUeT4EFK32_n-23" value="" style="endArrow=none;html=1;rounded=0;" edge="1" parent="1" source="KrM-hgTWWUeT4EFK32_n-10" target="KrM-hgTWWUeT4EFK32_n-9">
          <mxGeometry width="50" height="50" relative="1" as="geometry">
            <mxPoint x="360" y="330" as="sourcePoint" />
            <mxPoint x="410" y="280" as="targetPoint" />
          </mxGeometry>
        </mxCell>
        <mxCell id="KrM-hgTWWUeT4EFK32_n-24" value="\(1\)" style="text;html=1;align=center;verticalAlign=middle;whiteSpace=wrap;rounded=0;" vertex="1" parent="1">
          <mxGeometry x="370" y="370" width="60" height="30" as="geometry" />
        </mxCell>
        <mxCell id="KrM-hgTWWUeT4EFK32_n-27" value="\(2\)" style="text;html=1;align=center;verticalAlign=middle;whiteSpace=wrap;rounded=0;" vertex="1" parent="1">
          <mxGeometry x="250" y="370" width="60" height="30" as="geometry" />
        </mxCell>
        <mxCell id="KrM-hgTWWUeT4EFK32_n-28" value="\(3\)" style="text;html=1;align=center;verticalAlign=middle;whiteSpace=wrap;rounded=0;" vertex="1" parent="1">
          <mxGeometry x="330" y="370" width="60" height="30" as="geometry" />
        </mxCell>
        <mxCell id="KrM-hgTWWUeT4EFK32_n-29" value="\(4\)" style="text;html=1;align=center;verticalAlign=middle;whiteSpace=wrap;rounded=0;" vertex="1" parent="1">
          <mxGeometry x="530" y="370" width="60" height="30" as="geometry" />
        </mxCell>
        <mxCell id="KrM-hgTWWUeT4EFK32_n-30" value="\(5\)" style="text;html=1;align=center;verticalAlign=middle;whiteSpace=wrap;rounded=0;" vertex="1" parent="1">
          <mxGeometry x="450" y="370" width="60" height="30" as="geometry" />
        </mxCell>
        <mxCell id="KrM-hgTWWUeT4EFK32_n-31" value="\(6\)" style="text;html=1;align=center;verticalAlign=middle;whiteSpace=wrap;rounded=0;" vertex="1" parent="1">
          <mxGeometry x="570" y="370" width="60" height="30" as="geometry" />
        </mxCell>
        <mxCell id="KrM-hgTWWUeT4EFK32_n-32" value="\(7\)" style="text;html=1;align=center;verticalAlign=middle;whiteSpace=wrap;rounded=0;" vertex="1" parent="1">
          <mxGeometry x="490" y="370" width="60" height="30" as="geometry" />
        </mxCell>
        <mxCell id="KrM-hgTWWUeT4EFK32_n-33" value="\(8\)" style="text;html=1;align=center;verticalAlign=middle;whiteSpace=wrap;rounded=0;" vertex="1" parent="1">
          <mxGeometry x="290" y="370" width="60" height="30" as="geometry" />
        </mxCell>
        <mxCell id="KrM-hgTWWUeT4EFK32_n-34" value="\(9\)" style="text;html=1;align=center;verticalAlign=middle;whiteSpace=wrap;rounded=0;" vertex="1" parent="1">
          <mxGeometry x="410" y="370" width="60" height="30" as="geometry" />
        </mxCell>
      </root>
    </mxGraphModel>
  </diagram>
</mxfile>
